<svg width="200" height="76" viewBox="0 0 200 76" fill="none" xmlns="http://www.w3.org/2000/svg">
<g filter="url(#filter0_d)">
<path d="M1 14C1 6.26802 7.26801 0 15 0H179C186.732 0 193 6.26801 193 14V48C193 55.732 186.732 62 179 62H15C7.26802 62 1 55.732 1 48V14Z" fill="#EC6A5C"/>
<path d="M137.414 32.4142C138.195 31.6332 138.195 30.3668 137.414 29.5858L124.686 16.8579C123.905 16.0768 122.639 16.0768 121.858 16.8579C121.077 17.6389 121.077 18.9052 121.858 19.6863L133.172 31L121.858 42.3137C121.077 43.0948 121.077 44.3611 121.858 45.1421C122.639 45.9232 123.905 45.9232 124.686 45.1421L137.414 32.4142ZM1 33L136 33L136 29L1 29L1 33Z" fill="#F3E9DB"/>
</g>
<defs>
<filter id="filter0_d" x="0" y="0" width="200" height="76" filterUnits="userSpaceOnUse" color-interpolation-filters="sRGB">
<feFlood flood-opacity="0" result="BackgroundImageFix"/>
<feColorMatrix in="SourceAlpha" type="matrix" values="0 0 0 0 0 0 0 0 0 0 0 0 0 0 0 0 0 0 127 0"/>
<feOffset dx="3" dy="10"/>
<feGaussianBlur stdDeviation="2"/>
<feColorMatrix type="matrix" values="0 0 0 0 0 0 0 0 0 0 0 0 0 0 0 0 0 0 0.25 0"/>
<feBlend mode="normal" in2="BackgroundImageFix" result="effect1_dropShadow"/>
<feBlend mode="normal" in="SourceGraphic" in2="effect1_dropShadow" result="shape"/>
</filter>
</defs>
</svg>
